<svg width="121" height="121" viewBox="0 0 112 164" fill="none" xmlns="http://www.w3.org/2000/svg"><path fill-rule="evenodd" clip-rule="evenodd" d="M5.79775 57.623C5.79775 54.8616 8.03633 52.623 10.7978 52.623H95.4944C98.2558 52.623 100.494 54.8616 100.494 57.623V62.9627V69.8117L109 69.8117C109.552 69.8117 110 70.2594 110 70.8117V93.8928V100.194C110 101.112 108.867 101.545 108.255 100.861L102.318 94.226C102.128 94.014 101.857 93.8928 101.573 93.8928H100.494V114.378C100.494 117.139 98.2558 119.378 95.4944 119.378H10.7978C8.03633 119.378 5.79775 117.139 5.79775 114.378V111.898L1.74525 116.427C1.13319 117.111 0 116.678 0 115.76V109.459V86.3778C0 85.8255 0.447715 85.3778 1 85.3778H5.79775V62.9627V57.623ZM7.79775 63.9627V85.3778H39.7865C40.3388 85.3778 40.7865 85.8255 40.7865 86.3778V108.459C40.7865 109.011 40.3388 109.459 39.7865 109.459H16.8466H8.42709C8.19639 109.459 7.97456 109.539 7.79775 109.682V114.378C7.79775 116.035 9.1409 117.378 10.7978 117.378H95.4944C97.1512 117.378 98.4944 116.035 98.4944 114.378V93.8928H93.1534H70.2135C69.6612 93.8928 69.2135 93.4451 69.2135 92.8928V70.8117C69.2135 70.2594 69.6612 69.8117 70.2135 69.8117L98.4944 69.8117V63.9627H7.79775ZM98.4944 61.9627H7.79775V57.623C7.79775 55.9662 9.1409 54.623 10.7978 54.623H95.4944C97.1512 54.623 98.4944 55.9662 98.4944 57.623V61.9627ZM89.6067 57.9815C89.6067 58.6693 89.0534 59.2268 88.3708 59.2268C87.6882 59.2268 87.1348 58.6693 87.1348 57.9815C87.1348 57.2938 87.6882 56.7363 88.3708 56.7363C89.0534 56.7363 89.6067 57.2938 89.6067 57.9815ZM93.3146 59.2268C93.9972 59.2268 94.5506 58.6693 94.5506 57.9815C94.5506 57.2938 93.9972 56.7363 93.3146 56.7363C92.632 56.7363 92.0787 57.2938 92.0787 57.9815C92.0787 58.6693 92.632 59.2268 93.3146 59.2268ZM9.68272 95.9098C8.33568 96.6769 8.33569 98.6186 9.68272 99.3857L14.6699 102.226C15.1498 102.499 15.7604 102.332 16.0337 101.852C16.307 101.372 16.1395 100.761 15.6596 100.488L10.6724 97.6478L15.6596 94.8077C16.1395 94.5344 16.307 93.9238 16.0337 93.4438C15.7604 92.9639 15.1498 92.7964 14.6699 93.0697L9.68272 95.9098ZM30.5352 99.671L25.5481 102.511C25.0682 102.784 24.4576 102.617 24.1843 102.137C23.911 101.657 24.0784 101.046 24.5584 100.773L29.5455 97.9331L24.5584 95.093C24.0784 94.8197 23.911 94.2091 24.1843 93.7291C24.4576 93.2492 25.0682 93.0817 25.5481 93.355L30.5352 96.1951C31.8823 96.9622 31.8823 98.9039 30.5352 99.671ZM22.6186 92.4946C22.7665 91.9625 22.455 91.4112 21.9229 91.2633C21.3907 91.1155 20.8395 91.4269 20.6916 91.9591L17.5993 103.086C17.4515 103.618 17.763 104.17 18.2951 104.318C18.8272 104.465 19.3784 104.154 19.5263 103.622L22.6186 92.4946ZM85.8989 83.5098C86.5815 83.5098 87.1348 82.9523 87.1348 82.2646C87.1348 81.5768 86.5815 81.0193 85.8989 81.0193C85.2163 81.0193 84.6629 81.5768 84.6629 82.2646C84.6629 82.9523 85.2163 83.5098 85.8989 83.5098ZM90.8427 82.2646C90.8427 82.9523 90.2893 83.5098 89.6067 83.5098C88.9241 83.5098 88.3708 82.9523 88.3708 82.2646C88.3708 81.5768 88.9241 81.0193 89.6067 81.0193C90.2893 81.0193 90.8427 81.5768 90.8427 82.2646ZM93.3146 83.5098C93.9972 83.5098 94.5506 82.9523 94.5506 82.2646C94.5506 81.5768 93.9972 81.0193 93.3146 81.0193C92.632 81.0193 92.0787 81.5768 92.0787 82.2646C92.0787 82.9523 92.632 83.5098 93.3146 83.5098ZM78.4101 77.0176C78.4101 75.2366 79.8539 73.7929 81.6348 73.7929C82.1871 73.7929 82.6348 74.2406 82.6348 74.7929C82.6348 75.3451 82.1871 75.7929 81.6348 75.7929C80.9584 75.7929 80.4101 76.3412 80.4101 77.0176V79.9913C80.4101 80.8084 79.9715 81.5527 79.2783 81.9532C79.9715 82.3538 80.4101 83.098 80.4101 83.9151V86.3327C80.4101 87.3163 81.2075 88.1136 82.191 88.1136C82.7433 88.1136 83.191 88.5613 83.191 89.1136C83.191 89.6659 82.7433 90.1136 82.191 90.1136C80.1029 90.1136 78.4101 88.4208 78.4101 86.3327V83.9151C78.4101 83.806 78.3435 83.7079 78.242 83.6677C76.6887 83.0524 76.6887 80.8541 78.242 80.2388C78.3435 80.1986 78.4101 80.1005 78.4101 79.9913V77.0176ZM97.5787 73.7929C99.3596 73.7929 100.803 75.2366 100.803 77.0176V79.9913C100.803 80.1005 100.87 80.1986 100.971 80.2388C102.525 80.8541 102.525 83.0524 100.971 83.6677C100.87 83.7079 100.803 83.806 100.803 83.9151V86.3327C100.803 88.4208 99.1106 90.1136 97.0225 90.1136C96.4702 90.1136 96.0225 89.6659 96.0225 89.1136C96.0225 88.5613 96.4702 88.1136 97.0225 88.1136C98.006 88.1136 98.8034 87.3163 98.8034 86.3327V83.9151C98.8034 83.098 99.242 82.3538 99.9352 81.9532C99.242 81.5527 98.8034 80.8084 98.8034 79.9913V77.0176C98.8034 76.3412 98.255 75.7929 97.5787 75.7929C97.0264 75.7929 96.5787 75.3451 96.5787 74.7929C96.5787 74.2406 97.0264 73.7929 97.5787 73.7929ZM108 71.8117V93.8928V97.577L103.809 92.8924C103.24 92.2564 102.426 91.8928 101.573 91.8928H93.1534H71.2135V71.8117H108ZM17.5393 71.057C17.5393 70.5047 17.987 70.057 18.5393 70.057H57.1629C57.7152 70.057 58.1629 70.5047 58.1629 71.057C58.1629 71.6093 57.7152 72.057 57.1629 72.057H18.5393C17.987 72.057 17.5393 71.6093 17.5393 71.057ZM18.5393 76.9061C17.987 76.9061 17.5393 77.3538 17.5393 77.9061C17.5393 78.4584 17.987 78.9061 18.5393 78.9061H57.1629C57.7152 78.9061 58.1629 78.4584 58.1629 77.9061C58.1629 77.3538 57.7152 76.9061 57.1629 76.9061H18.5393ZM44.1124 84.7551C44.1124 84.2028 44.5601 83.7551 45.1124 83.7551L57.4719 83.7551C58.0242 83.7551 58.4719 84.2028 58.4719 84.7551C58.4719 85.3074 58.0242 85.7551 57.4719 85.7551H45.1124C44.5601 85.7551 44.1124 85.3074 44.1124 84.7551ZM45.1124 90.6042C44.5601 90.6042 44.1124 91.0519 44.1124 91.6042C44.1124 92.1565 44.5601 92.6042 45.1124 92.6042H57.4719C58.0242 92.6042 58.4719 92.1565 58.4719 91.6042C58.4719 91.0519 58.0242 90.6042 57.4719 90.6042H45.1124Z" fill="url(#paint0_linear_2782_17249)"></path><defs><linearGradient id="paint0_linear_2782_17249" x1="4.94382" y1="46.6403" x2="83.2745" y2="138.072" gradientUnits="userSpaceOnUse"><stop offset="0.03125" stop-color="#62BDFF"></stop><stop offset="0.317708" stop-color="#62BDFF"></stop><stop offset="0.619792" stop-color="#A76FFF"></stop><stop offset="1" stop-color="#FF5469"></stop></linearGradient></defs></svg>