<svg width="130" height="115" viewBox="0 0 110 175" fill="none" xmlns="http://www.w3.org/2000/svg"><g filter="url(#filter0_b_2782_17253)"><path fill-rule="evenodd" clip-rule="evenodd" d="M58.1866 43.4105C57.4294 43.0845 56.5714 43.0845 55.8142 43.4105L2.48373 66.368C0.0651776 67.4091 0.0653613 70.8383 2.48403 71.8792L17.0412 78.1438L2.88006 84.2378C1.2675 84.9318 1.26749 87.2181 2.88004 87.9121L16.8676 93.9316L2.48414 100.121C0.0654422 101.162 0.0652368 104.591 2.48381 105.632L55.8142 128.59C56.5714 128.916 57.4294 128.916 58.1866 128.59L111.517 105.632C113.936 104.591 113.935 101.162 111.517 100.121L97.1332 93.9316L111.121 87.9121C112.733 87.2181 112.733 84.9318 111.121 84.2378L96.9596 78.1438L111.517 71.8792C113.935 70.8383 113.936 67.4091 111.517 66.368L58.1866 43.4105ZM18.7017 95.3196L18.3855 94.5848L56.2098 110.862C56.7145 111.08 57.2863 111.08 57.791 110.862L95.6153 94.5848L95.2991 95.3196L110.726 101.958C111.532 102.305 111.532 103.448 110.726 103.795L57.3958 126.753C57.1434 126.862 56.8574 126.862 56.605 126.753L3.2746 103.795C2.46841 103.448 2.46848 102.305 3.27471 101.958L18.7017 95.3196ZM56.605 45.2475C56.8574 45.1389 57.1434 45.1389 57.3958 45.2475L110.726 68.205C111.532 68.5521 111.532 69.6951 110.726 70.0421L57.3957 92.9928C57.1434 93.1014 56.8575 93.1014 56.6051 92.9928L3.27462 70.0421C2.4684 69.6951 2.46834 68.5521 3.27452 68.205L56.605 45.2475ZM44.7685 64.6769C45.1132 64.9307 45.3082 65.2868 45.3537 65.7451H47.7116C47.7003 65.0519 47.5147 64.4421 47.1548 63.9156C46.795 63.3891 46.2912 62.9781 45.6435 62.6826C44.9995 62.3872 44.2457 62.2394 43.3821 62.2394C42.5336 62.2394 41.776 62.3872 41.1094 62.6826C40.4427 62.9781 39.9181 63.3891 39.5355 63.9156C39.1567 64.4421 38.9692 65.0576 38.973 65.7622C38.9692 66.622 39.2514 67.3057 39.8196 67.8133C40.3878 68.3209 41.1624 68.694 42.1435 68.9326L43.4105 69.2508C43.8347 69.3531 44.1927 69.4667 44.4844 69.5917C44.7798 69.7167 45.0033 69.8682 45.1548 70.0463C45.3101 70.2243 45.3878 70.444 45.3878 70.7053C45.3878 70.9856 45.3026 71.2338 45.1321 71.4497C44.9616 71.6656 44.7211 71.8341 44.4105 71.9553C44.1037 72.0766 43.7419 72.1372 43.3253 72.1372C42.901 72.1372 42.5204 72.0728 42.1832 71.944C41.8499 71.8114 41.5829 71.6163 41.3821 71.3588C41.1851 71.0974 41.0734 70.7716 41.0469 70.3815H38.6662C38.6851 71.2186 38.8878 71.9213 39.2741 72.4894C39.6643 73.0538 40.206 73.48 40.8991 73.7678C41.5961 74.0557 42.4143 74.1997 43.3537 74.1997C44.3007 74.1997 45.1094 74.0576 45.7798 73.7735C46.4541 73.4856 46.9692 73.0822 47.3253 72.5633C47.6851 72.0406 47.8669 71.4231 47.8707 70.711C47.8669 70.2262 47.7779 69.7963 47.6037 69.4213C47.4332 69.0463 47.1927 68.7205 46.8821 68.444C46.5715 68.1675 46.2041 67.9345 45.7798 67.7451C45.3556 67.5557 44.8897 67.4042 44.3821 67.2906L43.3366 67.0406C43.0829 66.9838 42.8442 66.9156 42.6207 66.836C42.3972 66.7527 42.2003 66.6561 42.0298 66.5463C41.8594 66.4326 41.7249 66.2981 41.6264 66.1428C41.5317 65.9875 41.4882 65.8057 41.4957 65.5974C41.4957 65.3474 41.5677 65.1239 41.7116 64.9269C41.8594 64.73 42.0715 64.5766 42.348 64.4667C42.6245 64.3531 42.9635 64.2962 43.3651 64.2962C43.956 64.2962 44.4238 64.4231 44.7685 64.6769ZM49.5256 74.0349H53.6506C54.8324 74.0349 55.8475 73.8019 56.696 73.336C57.5483 72.8701 58.2017 72.2016 58.6562 71.3303C59.1146 70.4591 59.3437 69.4175 59.3437 68.2053C59.3437 66.997 59.1146 65.9591 58.6562 65.0917C58.2017 64.2243 57.5521 63.5595 56.7074 63.0974C55.8627 62.6315 54.8551 62.3985 53.6847 62.3985H49.5256V74.0349ZM53.5483 71.9269H51.9858V64.5065H53.554C54.2812 64.5065 54.893 64.6353 55.3892 64.8928C55.8854 65.1504 56.2585 65.5519 56.5085 66.0974C56.7623 66.6428 56.8892 67.3455 56.8892 68.2053C56.8892 69.0728 56.7623 69.7811 56.5085 70.3303C56.2585 70.8758 55.8835 71.2792 55.3835 71.5406C54.8873 71.7981 54.2756 71.9269 53.5483 71.9269ZM61.1662 62.3985V74.0349H63.6264V70.7281L64.8366 69.2508L68.0241 74.0349H70.9673L66.598 67.6088L70.9162 62.3985H67.9673L63.7798 67.5292H63.6264V62.3985H61.1662Z" fill="url(#paint0_linear_2782_17253)"></path></g><defs><filter id="filter0_b_2782_17253" x="-19.3301" y="23.166" width="152.66" height="125.668" filterUnits="userSpaceOnUse" color-interpolation-filters="sRGB"><feFlood flood-opacity="0" result="BackgroundImageFix"></feFlood><feGaussianBlur in="BackgroundImageFix" stdDeviation="10"></feGaussianBlur><feComposite in2="SourceAlpha" operator="in" result="effect1_backgroundBlur_2782_17253"></feComposite><feBlend mode="normal" in="SourceGraphic" in2="effect1_backgroundBlur_2782_17253" result="shape"></feBlend></filter><linearGradient id="paint0_linear_2782_17253" x1="23.6339" y1="22.4617" x2="85.1161" y2="160.183" gradientUnits="userSpaceOnUse"><stop stop-color="#62BDFF"></stop><stop offset="0.359217" stop-color="#62BDFF"></stop><stop offset="0.89459" stop-color="#FF5469"></stop></linearGradient></defs></svg>