<svg width="124" height="124" viewBox="0 0 98 170" fill="none" xmlns="http://www.w3.org/2000/svg"><path fill-rule="evenodd" clip-rule="evenodd" d="M93.9177 44.9365H4.08203C2.97747 44.9365 2.08203 45.832 2.08203 46.9365V110.395C2.08203 111.499 2.97746 112.395 4.08203 112.395H93.9176C95.0222 112.395 95.9176 111.499 95.9176 110.395V46.9365C95.9176 45.832 95.0222 44.9365 93.9177 44.9365ZM4.08203 42.9365C1.87289 42.9365 0.0820312 44.7274 0.0820312 46.9365V110.395C0.0820312 112.604 1.87289 114.395 4.08203 114.395L38.6459 114.395C38.6459 116.547 38.1067 119.774 36.532 122.427C35.0019 125.004 32.5151 127.026 28.4869 127.063H28.3756C27.8233 127.063 27.3756 127.51 27.3756 128.063C27.3756 128.063 27.3756 128.063 27.3756 128.063C27.3756 128.615 27.8233 129.063 28.3756 129.063C28.4158 129.063 28.4559 129.063 28.4959 129.063H69.2602C69.3002 129.063 69.3402 129.063 69.3805 129.063C69.9327 129.063 70.3805 128.615 70.3805 128.063C70.3805 127.968 70.3672 127.876 70.3425 127.789C70.3313 127.75 70.3177 127.711 70.3019 127.674C70.1502 127.315 69.7947 127.063 69.3803 127.063H69.2692C65.2409 127.026 62.7542 125.004 61.2241 122.427C59.6493 119.774 59.1102 116.547 59.1102 114.395L93.9176 114.395C96.1268 114.395 97.9176 112.604 97.9176 110.395V46.9365C97.9176 44.7274 96.1268 42.9365 93.9177 42.9365H4.08203ZM62.7578 127.063C61.3898 126.085 60.3207 124.823 59.5044 123.448C57.698 120.405 57.1102 116.799 57.1102 114.395H40.6459C40.6459 116.799 40.058 120.405 38.2517 123.448C37.4354 124.823 36.3663 126.085 34.9983 127.063H62.7578ZM47.6665 56.4042C48.4288 56.0731 49.2943 56.0731 50.0567 56.4042L78.331 68.6842C79.9673 69.3949 79.925 71.7299 78.2641 72.3808L76.4036 73.1099C76.452 73.2273 76.4787 73.3559 76.4787 73.4908V96.573C77.7184 97.7011 78.5947 100.469 78.5947 103.705C78.5947 107.943 77.0917 108.021 75.2376 108.021C73.3835 108.021 71.8805 107.943 71.8805 103.705C71.8805 100.064 72.9902 97.0147 74.4787 96.2284V73.8642L70.4837 75.4298V86.2596C70.4837 87.6328 69.6781 88.7954 68.5532 89.7167C67.4209 90.644 65.843 91.4346 63.9815 92.0793C60.2491 93.3722 55.1577 94.1536 49.5808 94.1536C44.0039 94.1536 38.9125 93.3722 35.1801 92.0793C33.3186 91.4346 31.7407 90.644 30.6084 89.7167C29.4835 88.7954 28.678 87.6327 28.678 86.2596V75.9936L19.4591 72.3808C17.7982 71.7299 17.7558 69.3949 19.3921 68.6842L47.6665 56.4042ZM49.9562 83.4743L68.4837 76.2136V86.2596C68.4837 86.7902 68.1753 87.4411 67.286 88.1694C66.404 88.8917 65.0672 89.5867 63.3269 90.1895C59.8559 91.3918 54.996 92.1536 49.5808 92.1536C44.1657 92.1536 39.3057 91.3918 35.8347 90.1895C34.0944 89.5867 32.7576 88.8917 31.8756 88.1694C30.9863 87.4411 30.678 86.7902 30.678 86.2596V76.7773L47.767 83.4743C48.4706 83.7501 49.2525 83.7501 49.9562 83.4743ZM76.2762 105.954C76.3405 105.849 76.5947 105.338 76.5947 103.705C76.5947 101.795 76.2521 100.162 75.7791 99.0807C75.5808 98.6273 75.3868 98.3335 75.2376 98.1612C75.0884 98.3335 74.8944 98.6273 74.6961 99.0807C74.2231 100.162 73.8805 101.795 73.8805 103.705C73.8805 105.338 74.1347 105.849 74.1991 105.954C74.2185 105.96 74.2482 105.968 74.2912 105.975C74.4876 106.011 74.7529 106.021 75.2376 106.021C75.7224 106.021 75.9876 106.011 76.184 105.975C76.2125 105.97 76.2351 105.965 76.2528 105.961L76.266 105.957L76.2762 105.954ZM76.3068 105.943C76.307 105.943 76.3054 105.944 76.3017 105.946C76.3049 105.944 76.3067 105.943 76.3068 105.943ZM74.1684 105.943C74.1685 105.943 74.1703 105.944 74.1735 105.946C74.1698 105.944 74.1682 105.943 74.1684 105.943ZM75.4119 97.997C75.4119 97.9971 75.4108 97.9978 75.4084 97.9991C75.4108 97.9976 75.4119 97.997 75.4119 97.997ZM75.0668 97.9991C75.0645 97.9978 75.0633 97.9971 75.0633 97.997C75.0633 97.997 75.0644 97.9976 75.0668 97.9991Z" fill="url(#paint0_linear_3742_6506)"></path><defs><linearGradient id="paint0_linear_3742_6506" x1="-25.5518" y1="39.4034" x2="49.3758" y2="170.76" gradientUnits="userSpaceOnUse"><stop stop-color="#A76FFF"></stop><stop offset="0.432292" stop-color="#62BDFF"></stop><stop offset="1" stop-color="#FF5469"></stop></linearGradient></defs></svg>